# xmcd CD database file
#
# Track frame offsets:
#	150
#	15814
#	41698
#	63254
#	86054
#	106805
#	126768
#	145186
#	164593
#	186085
#	203499
#	224271
#
# Disc length: 3295 seconds
#
# Revision: 0
# Processed by: cddbd v1.5.2PL0 Copyright (c) Steve Scherf et al.
# Submitted via: CDex 1.70beta2
#
DISCID=9d0cdd0c
DTITLE=Select Mix - Select Mix - Country Essentials Volume 8
DYEAR=2009
DGENRE=Country
TTITLE0=Kenny Chesney - Everybody Wants To Go To Heaven (BPM 69)
TTITLE1=Carrie Underwood - Just A Dream (BPM 71)
TTITLE2=Darius Rucker - It Won't Be Like This For Long (BPM 72)
TTITLE3=Toby Keith - She Never Cried In Front Of Me (BPM 73)
TTITLE4=Jo Dee Messina - Lesson In Leavin' (BPM 81)
TTITLE5=Rascal Flatts - Bob That Head (BPM 83)
TTITLE6=Tim McGraw - Something Like That (BPM 86)
TTITLE7=Sugarland - All I Want To Do (BPM 97)
TTITLE8=Billy Currington - Don't (BPM 98)
TTITLE9=Carolina Rain - Weight Of The World (BPM 104)
TTITLE10=Taylor Swift - Love Story (BPM 120)
TTITLE11=Alan Jackson - Country Boy (BPM 139)
EXTD=YEAR: 2009
EXTT0=
EXTT1=
EXTT2=
EXTT3=
EXTT4=
EXTT5=
EXTT6=
EXTT7=
EXTT8=
EXTT9=
EXTT10=
EXTT11=
PLAYORDER=
